<?xml version="1.0" encoding="UTF-8" standalone="no"?>
<svg
   width="144"
   height="144"
   viewBox="0 0 144 144"
   version="1.1"
   id="svg1"
   sodipodi:docname="favicon.svg"
   inkscape:version="1.4.3 (0d15f75, 2025-12-25)"
   xmlns:inkscape="http://www.inkscape.org/namespaces/inkscape"
   xmlns:sodipodi="http://sodipodi.sourceforge.net/DTD/sodipodi-0.dtd"
   xmlns="http://www.w3.org/2000/svg"
   xmlns:svg="http://www.w3.org/2000/svg">
  <defs
     id="defs1" />
  <sodipodi:namedview
     id="namedview1"
     pagecolor="#ffffff"
     bordercolor="#000000"
     borderopacity="0.25"
     inkscape:showpageshadow="2"
     inkscape:pageopacity="0.0"
     inkscape:pagecheckerboard="0"
     inkscape:deskcolor="#d1d1d1"
     inkscape:zoom="5.1041667"
     inkscape:cx="71.902041"
     inkscape:cy="72"
     inkscape:window-width="1920"
     inkscape:window-height="974"
     inkscape:window-x="-11"
     inkscape:window-y="-11"
     inkscape:window-maximized="1"
     inkscape:current-layer="svg1" />
  <rect
     width="144"
     height="144"
     fill="#673AB7"
     id="rect1" />
  <path
     d="m 72,21.375 -29.5625,52.5 v 29.1875 h -11.25 V 73.625 L 1.625,21.375 h 13.4375 l 16.25,29.875 6,12 5.5,-10.875 16.4375,-31 z m 60.4375,81.6875 h -9.75 l -0.375,-10.125 q -2.8125,3.25 -5.375,5.4375 -2.5,2.125 -5,3.4375 -2.5,1.3125 -5.0625,1.8125 -2.5,0.5625 -5.3125,0.5625 -9.6875,0 -14.625,-5.6875 Q 82,92.8125 82,81.3125 v -41 h 10.875 v 40.125 q 0,14.4375 10.875,14.4375 2,0 3.875,-0.5625 1.9375,-0.625 4,-2.0625 2.125,-1.5 4.5,-4 2.4375,-2.5 5.4375,-6.3125 v -41.625 h 10.875 z"
     id="text1"
     style="font-size:128px;font-family:Consolas, monospace;dominant-baseline:central;text-anchor:middle;fill:#ffffff"
     aria-label="Yu" />
</svg>
