<?xml version="1.0" encoding="UTF-8" standalone="no"?>
<svg
   width="200"
   height="100"
   version="1.1"
   id="svg1"
   sodipodi:docname="logo.svg"
   inkscape:version="1.4.3 (0d15f75, 2025-12-25)"
   xmlns:inkscape="http://www.inkscape.org/namespaces/inkscape"
   xmlns:sodipodi="http://sodipodi.sourceforge.net/DTD/sodipodi-0.dtd"
   xmlns="http://www.w3.org/2000/svg"
   xmlns:svg="http://www.w3.org/2000/svg">
   <defs
      id="defs1" />
   <sodipodi:namedview
      id="namedview1"
      pagecolor="#ffffff"
      bordercolor="#000000"
      borderopacity="0.25"
      inkscape:showpageshadow="2"
      inkscape:pageopacity="0.0"
      inkscape:pagecheckerboard="0"
      inkscape:deskcolor="#d1d1d1"
      inkscape:zoom="5.1972348"
      inkscape:cx="122.95"
      inkscape:cy="43.388457"
      inkscape:window-width="1920"
      inkscape:window-height="974"
      inkscape:window-x="-11"
      inkscape:window-y="-11"
      inkscape:window-maximized="1"
      inkscape:current-layer="svg1" />
   <path
      d="m 37.46875,69.125 -5.109375,5.15625 -31.5,-26.296875 31.5,-26.296875 5.109375,5.203125 -25.546875,21 z M 100,12.265625 77.828125,51.640625 V 73.53125 h -8.4375 V 51.453125 L 47.21875,12.265625 h 10.078125 l 12.1875,22.40625 4.5,9 4.125,-8.15625 12.328125,-23.25 z m 45.32812,61.265625 h -7.3125 l -0.28125,-7.59375 q -2.10937,2.4375 -4.03125,4.078125 -1.875,1.59375 -3.75,2.578125 -1.875,0.984375 -3.79687,1.359375 -1.875,0.421875 -3.98437,0.421875 -7.26563,0 -10.96875,-4.265625 Q 107.5,65.84375 107.5,57.21875 v -30.75 h 8.15625 V 56.5625 q 0,10.828125 8.15625,10.828125 1.5,0 2.90625,-0.421875 1.45312,-0.46875 3,-1.546875 1.59375,-1.125 3.375,-3 1.82812,-1.875 4.07812,-4.734375 V 26.46875 h 8.15625 z m 17.25,-46.640625 5.0625,-5.203125 31.5,26.296875 -31.5,26.296875 -5.0625,-5.15625 25.54688,-21.046875 z"
      id="text1"
      style="font-size:96px;font-family:Consolas, monospace;dominant-baseline:middle;text-anchor:middle;fill:#ffffff;fill-opacity:1"
      aria-label="&lt;Yu&gt;" />
</svg>